<mxfile host="app.diagrams.net" modified="2023-12-05T19:56:35.018Z" agent="Mozilla/5.0 (Windows NT 10.0; Win64; x64) AppleWebKit/537.36 (KHTML, like Gecko) Chrome/119.0.0.0 Safari/537.36" etag="Q15LlvqukqxIBZ1cgjwk" version="22.1.5" type="device">
  <diagram name="Page-1" id="8378b5f6-a2b2-b727-a746-972ab9d02e00">
    <mxGraphModel dx="1793" dy="948" grid="0" gridSize="10" guides="1" tooltips="1" connect="0" arrows="1" fold="1" page="1" pageScale="1.5" pageWidth="1169" pageHeight="827" background="none" math="0" shadow="0">
      <root>
        <mxCell id="0" />
        <mxCell id="1" parent="0" />
        <mxCell id="ZZIg_srncWXC2HW05zio-467" value="" style="strokeColor=#DEEDFF" vertex="1" parent="1">
          <mxGeometry x="506" y="432" width="20" height="160" as="geometry" />
        </mxCell>
        <mxCell id="ZZIg_srncWXC2HW05zio-466" value="" style="strokeColor=#DEEDFF" vertex="1" parent="1">
          <mxGeometry x="443" y="431" width="20" height="160" as="geometry" />
        </mxCell>
        <mxCell id="ZZIg_srncWXC2HW05zio-463" value="" style="strokeColor=#DEEDFF;fillColor=#D4E1FF" vertex="1" parent="1">
          <mxGeometry x="1583" y="432" width="20" height="161" as="geometry" />
        </mxCell>
        <mxCell id="ZZIg_srncWXC2HW05zio-461" value="" style="strokeColor=#DEEDFF;fillColor=#D4E1FF" vertex="1" parent="1">
          <mxGeometry x="1443" y="431" width="20" height="161" as="geometry" />
        </mxCell>
        <mxCell id="ZZIg_srncWXC2HW05zio-462" value="" style="strokeColor=#DEEDFF;fillColor=#D4E1FF" vertex="1" parent="1">
          <mxGeometry x="1463" y="431" width="20" height="161" as="geometry" />
        </mxCell>
        <mxCell id="ZZIg_srncWXC2HW05zio-459" value="" style="strokeColor=#DEEDFF;fillColor=#D4E1FF" vertex="1" parent="1">
          <mxGeometry x="1303" y="431" width="20" height="161" as="geometry" />
        </mxCell>
        <mxCell id="ZZIg_srncWXC2HW05zio-460" value="" style="strokeColor=#DEEDFF;fillColor=#D4E1FF" vertex="1" parent="1">
          <mxGeometry x="1323" y="431" width="20" height="161" as="geometry" />
        </mxCell>
        <mxCell id="ZZIg_srncWXC2HW05zio-457" value="" style="strokeColor=#DEEDFF;fillColor=#D4E1FF" vertex="1" parent="1">
          <mxGeometry x="1163" y="432" width="20" height="161" as="geometry" />
        </mxCell>
        <mxCell id="ZZIg_srncWXC2HW05zio-458" value="" style="strokeColor=#DEEDFF;fillColor=#D4E1FF" vertex="1" parent="1">
          <mxGeometry x="1183" y="432" width="20" height="161" as="geometry" />
        </mxCell>
        <mxCell id="ZZIg_srncWXC2HW05zio-455" value="" style="strokeColor=#DEEDFF;fillColor=#D4E1FF" vertex="1" parent="1">
          <mxGeometry x="1023" y="431.5" width="20" height="161" as="geometry" />
        </mxCell>
        <mxCell id="ZZIg_srncWXC2HW05zio-456" value="" style="strokeColor=#DEEDFF;fillColor=#D4E1FF" vertex="1" parent="1">
          <mxGeometry x="1043" y="431.5" width="20" height="161" as="geometry" />
        </mxCell>
        <mxCell id="ZZIg_srncWXC2HW05zio-453" value="" style="strokeColor=#DEEDFF;fillColor=#D4E1FF" vertex="1" parent="1">
          <mxGeometry x="883" y="432" width="20" height="161" as="geometry" />
        </mxCell>
        <mxCell id="ZZIg_srncWXC2HW05zio-454" value="" style="strokeColor=#DEEDFF;fillColor=#D4E1FF" vertex="1" parent="1">
          <mxGeometry x="903" y="432" width="20" height="161" as="geometry" />
        </mxCell>
        <mxCell id="ZZIg_srncWXC2HW05zio-451" value="" style="strokeColor=#DEEDFF;fillColor=#D4E1FF" vertex="1" parent="1">
          <mxGeometry x="743" y="431" width="20" height="161" as="geometry" />
        </mxCell>
        <mxCell id="ZZIg_srncWXC2HW05zio-452" value="" style="strokeColor=#DEEDFF;fillColor=#D4E1FF" vertex="1" parent="1">
          <mxGeometry x="763" y="431" width="20" height="161" as="geometry" />
        </mxCell>
        <mxCell id="ZZIg_srncWXC2HW05zio-449" value="" style="strokeColor=#DEEDFF;fillColor=#D4E1FF" vertex="1" parent="1">
          <mxGeometry x="603" y="431.5" width="20" height="161" as="geometry" />
        </mxCell>
        <mxCell id="ZZIg_srncWXC2HW05zio-450" value="" style="strokeColor=#DEEDFF;fillColor=#D4E1FF" vertex="1" parent="1">
          <mxGeometry x="623" y="431.5" width="20" height="161" as="geometry" />
        </mxCell>
        <mxCell id="ZZIg_srncWXC2HW05zio-447" value="" style="strokeColor=#DEEDFF;fillColor=#D4E1FF" vertex="1" parent="1">
          <mxGeometry x="463" y="432" width="20" height="161" as="geometry" />
        </mxCell>
        <mxCell id="ZZIg_srncWXC2HW05zio-448" value="" style="strokeColor=#DEEDFF;fillColor=#D4E1FF" vertex="1" parent="1">
          <mxGeometry x="483" y="432" width="20" height="161" as="geometry" />
        </mxCell>
        <mxCell id="ZZIg_srncWXC2HW05zio-445" value="" style="strokeColor=#DEEDFF;fillColor=#D4E1FF" vertex="1" parent="1">
          <mxGeometry x="323" y="432" width="20" height="161" as="geometry" />
        </mxCell>
        <mxCell id="ZZIg_srncWXC2HW05zio-446" value="" style="strokeColor=#DEEDFF;fillColor=#D4E1FF" vertex="1" parent="1">
          <mxGeometry x="343" y="432" width="20" height="161" as="geometry" />
        </mxCell>
        <mxCell id="ZZIg_srncWXC2HW05zio-438" value="" style="strokeColor=#DEEDFF" vertex="1" parent="1">
          <mxGeometry x="1483" y="431" width="20" height="160" as="geometry" />
        </mxCell>
        <mxCell id="ZZIg_srncWXC2HW05zio-439" value="" style="strokeColor=#DEEDFF" vertex="1" parent="1">
          <mxGeometry x="1503" y="431" width="20" height="160" as="geometry" />
        </mxCell>
        <mxCell id="ZZIg_srncWXC2HW05zio-440" value="" style="strokeColor=#DEEDFF" vertex="1" parent="1">
          <mxGeometry x="1523" y="431" width="20" height="160" as="geometry" />
        </mxCell>
        <mxCell id="ZZIg_srncWXC2HW05zio-441" value="" style="strokeColor=#DEEDFF" vertex="1" parent="1">
          <mxGeometry x="1543" y="431" width="20" height="160" as="geometry" />
        </mxCell>
        <mxCell id="ZZIg_srncWXC2HW05zio-442" value="" style="strokeColor=#DEEDFF" vertex="1" parent="1">
          <mxGeometry x="1563" y="431" width="20" height="161" as="geometry" />
        </mxCell>
        <mxCell id="ZZIg_srncWXC2HW05zio-433" value="" style="strokeColor=#DEEDFF" vertex="1" parent="1">
          <mxGeometry x="1343" y="432" width="20" height="160" as="geometry" />
        </mxCell>
        <mxCell id="ZZIg_srncWXC2HW05zio-434" value="" style="strokeColor=#DEEDFF" vertex="1" parent="1">
          <mxGeometry x="1363" y="432" width="20" height="160" as="geometry" />
        </mxCell>
        <mxCell id="ZZIg_srncWXC2HW05zio-435" value="" style="strokeColor=#DEEDFF" vertex="1" parent="1">
          <mxGeometry x="1383" y="432" width="20" height="160" as="geometry" />
        </mxCell>
        <mxCell id="ZZIg_srncWXC2HW05zio-436" value="" style="strokeColor=#DEEDFF" vertex="1" parent="1">
          <mxGeometry x="1403" y="432" width="20" height="160" as="geometry" />
        </mxCell>
        <mxCell id="ZZIg_srncWXC2HW05zio-437" value="" style="strokeColor=#DEEDFF" vertex="1" parent="1">
          <mxGeometry x="1423" y="432" width="20" height="160" as="geometry" />
        </mxCell>
        <mxCell id="ZZIg_srncWXC2HW05zio-428" value="" style="strokeColor=#DEEDFF" vertex="1" parent="1">
          <mxGeometry x="1203" y="432" width="20" height="160" as="geometry" />
        </mxCell>
        <mxCell id="ZZIg_srncWXC2HW05zio-429" value="" style="strokeColor=#DEEDFF" vertex="1" parent="1">
          <mxGeometry x="1223" y="432" width="20" height="160" as="geometry" />
        </mxCell>
        <mxCell id="ZZIg_srncWXC2HW05zio-430" value="" style="strokeColor=#DEEDFF" vertex="1" parent="1">
          <mxGeometry x="1243" y="432" width="20" height="160" as="geometry" />
        </mxCell>
        <mxCell id="ZZIg_srncWXC2HW05zio-431" value="" style="strokeColor=#DEEDFF" vertex="1" parent="1">
          <mxGeometry x="1263" y="432" width="20" height="160" as="geometry" />
        </mxCell>
        <mxCell id="ZZIg_srncWXC2HW05zio-432" value="" style="strokeColor=#DEEDFF" vertex="1" parent="1">
          <mxGeometry x="1283" y="432" width="20" height="161" as="geometry" />
        </mxCell>
        <mxCell id="ZZIg_srncWXC2HW05zio-418" value="" style="strokeColor=#DEEDFF" vertex="1" parent="1">
          <mxGeometry x="1063" y="432" width="20" height="160" as="geometry" />
        </mxCell>
        <mxCell id="ZZIg_srncWXC2HW05zio-419" value="" style="strokeColor=#DEEDFF" vertex="1" parent="1">
          <mxGeometry x="1083" y="432" width="20" height="160" as="geometry" />
        </mxCell>
        <mxCell id="ZZIg_srncWXC2HW05zio-420" value="" style="strokeColor=#DEEDFF" vertex="1" parent="1">
          <mxGeometry x="1103" y="432" width="20" height="160" as="geometry" />
        </mxCell>
        <mxCell id="ZZIg_srncWXC2HW05zio-421" value="" style="strokeColor=#DEEDFF" vertex="1" parent="1">
          <mxGeometry x="1123" y="432" width="20" height="160" as="geometry" />
        </mxCell>
        <mxCell id="ZZIg_srncWXC2HW05zio-422" value="" style="strokeColor=#DEEDFF" vertex="1" parent="1">
          <mxGeometry x="1143" y="432" width="20" height="161" as="geometry" />
        </mxCell>
        <mxCell id="ZZIg_srncWXC2HW05zio-413" value="" style="strokeColor=#DEEDFF" vertex="1" parent="1">
          <mxGeometry x="923" y="430" width="20" height="160" as="geometry" />
        </mxCell>
        <mxCell id="ZZIg_srncWXC2HW05zio-414" value="" style="strokeColor=#DEEDFF" vertex="1" parent="1">
          <mxGeometry x="943" y="430" width="20" height="160" as="geometry" />
        </mxCell>
        <mxCell id="ZZIg_srncWXC2HW05zio-415" value="" style="strokeColor=#DEEDFF" vertex="1" parent="1">
          <mxGeometry x="963" y="430" width="20" height="160" as="geometry" />
        </mxCell>
        <mxCell id="ZZIg_srncWXC2HW05zio-416" value="" style="strokeColor=#DEEDFF" vertex="1" parent="1">
          <mxGeometry x="983" y="430" width="20" height="160" as="geometry" />
        </mxCell>
        <mxCell id="ZZIg_srncWXC2HW05zio-417" value="" style="strokeColor=#DEEDFF" vertex="1" parent="1">
          <mxGeometry x="1003" y="430" width="20" height="160" as="geometry" />
        </mxCell>
        <mxCell id="ZZIg_srncWXC2HW05zio-403" value="" style="strokeColor=#DEEDFF" vertex="1" parent="1">
          <mxGeometry x="783" y="432" width="20" height="160" as="geometry" />
        </mxCell>
        <mxCell id="ZZIg_srncWXC2HW05zio-404" value="" style="strokeColor=#DEEDFF" vertex="1" parent="1">
          <mxGeometry x="803" y="432" width="20" height="160" as="geometry" />
        </mxCell>
        <mxCell id="ZZIg_srncWXC2HW05zio-405" value="" style="strokeColor=#DEEDFF" vertex="1" parent="1">
          <mxGeometry x="823" y="432" width="20" height="160" as="geometry" />
        </mxCell>
        <mxCell id="ZZIg_srncWXC2HW05zio-406" value="" style="strokeColor=#DEEDFF" vertex="1" parent="1">
          <mxGeometry x="843" y="432" width="20" height="160" as="geometry" />
        </mxCell>
        <mxCell id="ZZIg_srncWXC2HW05zio-407" value="" style="strokeColor=#DEEDFF" vertex="1" parent="1">
          <mxGeometry x="863" y="432" width="20" height="161" as="geometry" />
        </mxCell>
        <mxCell id="ZZIg_srncWXC2HW05zio-393" value="" style="strokeColor=#DEEDFF" vertex="1" parent="1">
          <mxGeometry x="643" y="432" width="20" height="160" as="geometry" />
        </mxCell>
        <mxCell id="ZZIg_srncWXC2HW05zio-394" value="" style="strokeColor=#DEEDFF" vertex="1" parent="1">
          <mxGeometry x="663" y="432" width="20" height="160" as="geometry" />
        </mxCell>
        <mxCell id="ZZIg_srncWXC2HW05zio-395" value="" style="strokeColor=#DEEDFF" vertex="1" parent="1">
          <mxGeometry x="683" y="432" width="20" height="160" as="geometry" />
        </mxCell>
        <mxCell id="ZZIg_srncWXC2HW05zio-396" value="" style="strokeColor=#DEEDFF" vertex="1" parent="1">
          <mxGeometry x="703" y="432" width="20" height="160" as="geometry" />
        </mxCell>
        <mxCell id="ZZIg_srncWXC2HW05zio-397" value="" style="strokeColor=#DEEDFF" vertex="1" parent="1">
          <mxGeometry x="723" y="432" width="20" height="160" as="geometry" />
        </mxCell>
        <mxCell id="ZZIg_srncWXC2HW05zio-388" value="" style="strokeColor=#DEEDFF" vertex="1" parent="1">
          <mxGeometry x="423" y="430" width="20" height="160" as="geometry" />
        </mxCell>
        <mxCell id="ZZIg_srncWXC2HW05zio-389" value="" style="strokeColor=#DEEDFF" vertex="1" parent="1">
          <mxGeometry x="523" y="432" width="20" height="160" as="geometry" />
        </mxCell>
        <mxCell id="ZZIg_srncWXC2HW05zio-390" value="" style="strokeColor=#DEEDFF" vertex="1" parent="1">
          <mxGeometry x="543" y="432" width="20" height="160" as="geometry" />
        </mxCell>
        <mxCell id="ZZIg_srncWXC2HW05zio-391" value="" style="strokeColor=#DEEDFF" vertex="1" parent="1">
          <mxGeometry x="563" y="432" width="20" height="160" as="geometry" />
        </mxCell>
        <mxCell id="ZZIg_srncWXC2HW05zio-392" value="" style="strokeColor=#DEEDFF" vertex="1" parent="1">
          <mxGeometry x="583" y="432" width="20" height="161" as="geometry" />
        </mxCell>
        <mxCell id="ZZIg_srncWXC2HW05zio-382" value="" style="strokeColor=#DEEDFF" vertex="1" parent="1">
          <mxGeometry x="363" y="431" width="20" height="160" as="geometry" />
        </mxCell>
        <mxCell id="ZZIg_srncWXC2HW05zio-383" value="" style="strokeColor=#DEEDFF" vertex="1" parent="1">
          <mxGeometry x="383" y="431" width="20" height="160" as="geometry" />
        </mxCell>
        <mxCell id="ZZIg_srncWXC2HW05zio-384" value="" style="strokeColor=#DEEDFF" vertex="1" parent="1">
          <mxGeometry x="403" y="431" width="20" height="160" as="geometry" />
        </mxCell>
        <mxCell id="ZZIg_srncWXC2HW05zio-379" value="" style="strokeColor=#DEEDFF" vertex="1" parent="1">
          <mxGeometry x="283" y="431" width="20" height="160" as="geometry" />
        </mxCell>
        <mxCell id="ZZIg_srncWXC2HW05zio-380" value="" style="strokeColor=#DEEDFF" vertex="1" parent="1">
          <mxGeometry x="303" y="431" width="20" height="160" as="geometry" />
        </mxCell>
        <mxCell id="63" value="1" style="strokeColor=#DEEDFF;fillColor=#ADC3D9" parent="1" vertex="1">
          <mxGeometry x="83" y="170" width="40" height="20" as="geometry" />
        </mxCell>
        <mxCell id="64" value="Повне виконання проекту" style="align=left;strokeColor=#DEEDFF;fillColor=#ADC3D9" parent="1" vertex="1">
          <mxGeometry x="123" y="170" width="320" height="20" as="geometry" />
        </mxCell>
        <mxCell id="65" value="71 days" style="strokeColor=#DEEDFF;fillColor=#ADC3D9" parent="1" vertex="1">
          <mxGeometry x="443.00000000000176" y="170" width="80.00000000000028" height="20" as="geometry" />
        </mxCell>
        <mxCell id="66" value="21.10.2005" style="strokeColor=#DEEDFF;fillColor=#ADC3D9" parent="1" vertex="1">
          <mxGeometry x="523.000000000002" y="170" width="80.00000000000028" height="20" as="geometry" />
        </mxCell>
        <mxCell id="67" value="31.12.2005" style="strokeColor=#DEEDFF;fillColor=#ADC3D9" parent="1" vertex="1">
          <mxGeometry x="603.0000000000016" y="170.00000000000023" width="80.00000000000028" height="20" as="geometry" />
        </mxCell>
        <mxCell id="68" value="" style="strokeColor=#DEEDFF" parent="1" vertex="1">
          <mxGeometry x="83" y="431" width="20" height="160" as="geometry" />
        </mxCell>
        <mxCell id="69" value="2" style="" parent="1" vertex="1">
          <mxGeometry x="83.00000000000026" y="189.9999999999999" width="40" height="20" as="geometry" />
        </mxCell>
        <mxCell id="70" value="Кількість виконавців" style="align=left;" parent="1" vertex="1">
          <mxGeometry x="123.00000000000026" y="189.9999999999999" width="319.9999999999998" height="20" as="geometry" />
        </mxCell>
        <mxCell id="71" value="7 days" style="" parent="1" vertex="1">
          <mxGeometry x="443.000000000002" y="189.99999999999977" width="80.00000000000028" height="20" as="geometry" />
        </mxCell>
        <mxCell id="72" value="21.10.2005" style="" parent="1" vertex="1">
          <mxGeometry x="523.0000000000023" y="189.99999999999977" width="80.00000000000028" height="20" as="geometry" />
        </mxCell>
        <mxCell id="73" value="28.10.2005" style="" parent="1" vertex="1">
          <mxGeometry x="603.0000000000018" y="190.0000000000001" width="80.00000000000028" height="20" as="geometry" />
        </mxCell>
        <mxCell id="74" value="3" style="" parent="1" vertex="1">
          <mxGeometry x="83.00000000000027" y="209.99999999999977" width="40" height="20" as="geometry" />
        </mxCell>
        <mxCell id="75" value="Формування вимог" style="align=left;" parent="1" vertex="1">
          <mxGeometry x="123.00000000000027" y="209.99999999999977" width="319.9999999999997" height="20.000000000000014" as="geometry" />
        </mxCell>
        <mxCell id="76" value="9 day" style="" parent="1" vertex="1">
          <mxGeometry x="443.000000000002" y="209.99999999999977" width="80.00000000000028" height="20" as="geometry" />
        </mxCell>
        <mxCell id="77" value="28.10.2005" style="" parent="1" vertex="1">
          <mxGeometry x="523.0000000000023" y="209.99999999999977" width="80.00000000000028" height="20" as="geometry" />
        </mxCell>
        <mxCell id="78" value="06.11.2005" style="" parent="1" vertex="1">
          <mxGeometry x="603.0000000000018" y="210" width="80.00000000000028" height="20" as="geometry" />
        </mxCell>
        <mxCell id="79" value="4" style="" parent="1" vertex="1">
          <mxGeometry x="83" y="230.00000000000023" width="40" height="20" as="geometry" />
        </mxCell>
        <mxCell id="80" value="Проектування" style="align=left;" parent="1" vertex="1">
          <mxGeometry x="123" y="230.00000000000023" width="320" height="20" as="geometry" />
        </mxCell>
        <mxCell id="81" value="18 days" style="" parent="1" vertex="1">
          <mxGeometry x="443.0000000000017" y="230.0000000000001" width="80.00000000000028" height="20" as="geometry" />
        </mxCell>
        <mxCell id="82" value="06.11.2005" style="" parent="1" vertex="1">
          <mxGeometry x="523.000000000002" y="230.0000000000001" width="80.00000000000028" height="20" as="geometry" />
        </mxCell>
        <mxCell id="83" value="24.11.2005" style="" parent="1" vertex="1">
          <mxGeometry x="603.0000000000015" y="230.00000000000045" width="80.00000000000028" height="20" as="geometry" />
        </mxCell>
        <mxCell id="84" value="5" style="" parent="1" vertex="1">
          <mxGeometry x="82.99999999999991" y="250.00000000000023" width="40" height="20" as="geometry" />
        </mxCell>
        <mxCell id="85" value="Реализация" style="align=left;" parent="1" vertex="1">
          <mxGeometry x="122.99999999999991" y="250.00000000000023" width="320.0000000000001" height="20" as="geometry" />
        </mxCell>
        <mxCell id="86" value="27 day" style="" parent="1" vertex="1">
          <mxGeometry x="443.00000000000165" y="250.0000000000001" width="80.00000000000028" height="20" as="geometry" />
        </mxCell>
        <mxCell id="87" value="24.11.2005" style="" parent="1" vertex="1">
          <mxGeometry x="523.0000000000019" y="250.0000000000001" width="80.00000000000028" height="20" as="geometry" />
        </mxCell>
        <mxCell id="88" value="21.12.2005" style="" parent="1" vertex="1">
          <mxGeometry x="603.0000000000015" y="250.00000000000045" width="80.00000000000028" height="20" as="geometry" />
        </mxCell>
        <mxCell id="89" value="6" style="" parent="1" vertex="1">
          <mxGeometry x="82.9999999999999" y="270.00000000000045" width="40" height="20" as="geometry" />
        </mxCell>
        <mxCell id="90" value="Тестування" style="align=left;" parent="1" vertex="1">
          <mxGeometry x="122.9999999999999" y="270.00000000000045" width="320.0000000000001" height="20" as="geometry" />
        </mxCell>
        <mxCell id="91" value="3 days" style="" parent="1" vertex="1">
          <mxGeometry x="443.00000000000165" y="270.00000000000034" width="80.00000000000028" height="20" as="geometry" />
        </mxCell>
        <mxCell id="92" value="21.12.2005" style="" parent="1" vertex="1">
          <mxGeometry x="523.0000000000019" y="270.00000000000034" width="80.00000000000028" height="20" as="geometry" />
        </mxCell>
        <mxCell id="93" value="24.12.2005" style="" parent="1" vertex="1">
          <mxGeometry x="603.0000000000015" y="270.0000000000007" width="80.00000000000028" height="20" as="geometry" />
        </mxCell>
        <mxCell id="94" value="7" style="" parent="1" vertex="1">
          <mxGeometry x="83.00000000000063" y="290.0000000000007" width="40" height="20" as="geometry" />
        </mxCell>
        <mxCell id="95" value="Впровадження" style="align=left;" parent="1" vertex="1">
          <mxGeometry x="123.00000000000063" y="290.0000000000007" width="319.9999999999994" height="20" as="geometry" />
        </mxCell>
        <mxCell id="96" value="2 days" style="" parent="1" vertex="1">
          <mxGeometry x="443.0000000000024" y="290.0000000000007" width="80.00000000000028" height="20" as="geometry" />
        </mxCell>
        <mxCell id="97" value="24.12.2005" style="" parent="1" vertex="1">
          <mxGeometry x="523.0000000000027" y="290.0000000000007" width="80.00000000000028" height="20" as="geometry" />
        </mxCell>
        <mxCell id="98" value="26.12.2005" style="" parent="1" vertex="1">
          <mxGeometry x="603.0000000000022" y="290.0000000000009" width="80.00000000000028" height="20" as="geometry" />
        </mxCell>
        <mxCell id="99" value="8" style="" parent="1" vertex="1">
          <mxGeometry x="83.00000000000064" y="310.00000000000057" width="40" height="20" as="geometry" />
        </mxCell>
        <mxCell id="100" value="Експлуатація та супровід" style="align=left;" parent="1" vertex="1">
          <mxGeometry x="123.00000000000064" y="310.00000000000057" width="319.9999999999994" height="20" as="geometry" />
        </mxCell>
        <mxCell id="101" value="5 day" style="" parent="1" vertex="1">
          <mxGeometry x="443.0000000000024" y="310.00000000000057" width="80.00000000000028" height="20" as="geometry" />
        </mxCell>
        <mxCell id="102" value="26.12.2005" style="" parent="1" vertex="1">
          <mxGeometry x="523.0000000000027" y="310.00000000000057" width="80.00000000000028" height="20" as="geometry" />
        </mxCell>
        <mxCell id="103" value="31.12.2005" style="" parent="1" vertex="1">
          <mxGeometry x="603.0000000000022" y="310.0000000000008" width="80.00000000000028" height="20" as="geometry" />
        </mxCell>
        <mxCell id="194" value="" style="strokeColor=#DEEDFF" parent="1" vertex="1">
          <mxGeometry x="103" y="431" width="20" height="160" as="geometry" />
        </mxCell>
        <mxCell id="195" value="" style="strokeColor=#DEEDFF" parent="1" vertex="1">
          <mxGeometry x="123" y="431" width="20" height="160" as="geometry" />
        </mxCell>
        <mxCell id="196" value="" style="strokeColor=#DEEDFF" parent="1" vertex="1">
          <mxGeometry x="143" y="431" width="20" height="160" as="geometry" />
        </mxCell>
        <mxCell id="197" value="" style="strokeColor=#DEEDFF" parent="1" vertex="1">
          <mxGeometry x="163" y="431" width="20" height="160" as="geometry" />
        </mxCell>
        <mxCell id="198" value="" style="strokeColor=#DEEDFF;fillColor=#D4E1FF" parent="1" vertex="1">
          <mxGeometry x="183" y="431" width="20" height="161" as="geometry" />
        </mxCell>
        <mxCell id="199" value="" style="strokeColor=#DEEDFF;fillColor=#D4E1FF" parent="1" vertex="1">
          <mxGeometry x="203" y="431" width="20" height="161" as="geometry" />
        </mxCell>
        <mxCell id="200" value="" style="strokeColor=#DEEDFF" parent="1" vertex="1">
          <mxGeometry x="223" y="431" width="20" height="161" as="geometry" />
        </mxCell>
        <mxCell id="201" value="" style="strokeColor=#DEEDFF" parent="1" vertex="1">
          <mxGeometry x="243" y="431" width="20" height="161" as="geometry" />
        </mxCell>
        <mxCell id="202" value="" style="strokeColor=#DEEDFF" parent="1" vertex="1">
          <mxGeometry x="263" y="431" width="20" height="161" as="geometry" />
        </mxCell>
        <mxCell id="2" value="Ім&#39;я задачі" style="fillColor=#23445D;strokeColor=#FFFFFF;strokeWidth=2;fontColor=#FFFFFF;fontStyle=1" parent="1" vertex="1">
          <mxGeometry x="123" y="130" width="320" height="40" as="geometry" />
        </mxCell>
        <mxCell id="3" value="" style="fillColor=#23445D;strokeColor=#FFFFFF;strokeWidth=2;fontColor=#FFFFFF;fontStyle=1" parent="1" vertex="1">
          <mxGeometry x="83" y="130" width="40" height="40" as="geometry" />
        </mxCell>
        <mxCell id="4" value="21 Oct 05" style="fillColor=#23445D;strokeColor=#FFFFFF;strokeWidth=2;fontColor=#FFFFFF;fontStyle=1" parent="1" vertex="1">
          <mxGeometry x="83.00000000000182" y="391.0000000000001" width="140" height="20" as="geometry" />
        </mxCell>
        <mxCell id="5" value="M" style="fillColor=#23445D;strokeColor=#FFFFFF;strokeWidth=2;fontColor=#FFFFFF;fontStyle=1" parent="1" vertex="1">
          <mxGeometry x="83.00000000000182" y="411.0000000000001" width="20" height="20" as="geometry" />
        </mxCell>
        <mxCell id="6" value="T" style="fillColor=#23445D;strokeColor=#FFFFFF;strokeWidth=2;fontColor=#FFFFFF;fontStyle=1" parent="1" vertex="1">
          <mxGeometry x="103.00000000000182" y="411.0000000000001" width="20" height="20" as="geometry" />
        </mxCell>
        <mxCell id="7" value="W" style="fillColor=#23445D;strokeColor=#FFFFFF;strokeWidth=2;fontColor=#FFFFFF;fontStyle=1" parent="1" vertex="1">
          <mxGeometry x="123.00000000000182" y="411.0000000000001" width="20" height="20" as="geometry" />
        </mxCell>
        <mxCell id="8" value="T" style="fillColor=#23445D;strokeColor=#FFFFFF;strokeWidth=2;fontColor=#FFFFFF;fontStyle=1" parent="1" vertex="1">
          <mxGeometry x="143.00000000000182" y="411.0000000000001" width="20" height="20" as="geometry" />
        </mxCell>
        <mxCell id="9" value="F" style="fillColor=#23445D;strokeColor=#FFFFFF;strokeWidth=2;fontColor=#FFFFFF;fontStyle=1" parent="1" vertex="1">
          <mxGeometry x="163.0000000000016" y="411.0000000000001" width="20" height="20" as="geometry" />
        </mxCell>
        <mxCell id="10" value="S" style="fillColor=#23445D;strokeColor=#FFFFFF;strokeWidth=2;fontColor=#FFFFFF;fontStyle=1" parent="1" vertex="1">
          <mxGeometry x="183.0000000000016" y="411.0000000000001" width="20" height="20" as="geometry" />
        </mxCell>
        <mxCell id="11" value="S" style="fillColor=#23445D;strokeColor=#FFFFFF;strokeWidth=2;fontColor=#FFFFFF;fontStyle=1" parent="1" vertex="1">
          <mxGeometry x="203.0000000000016" y="411.0000000000001" width="20" height="20" as="geometry" />
        </mxCell>
        <mxCell id="12" value="Тривалість" style="fillColor=#23445D;strokeColor=#FFFFFF;strokeWidth=2;fontColor=#FFFFFF;fontStyle=1" parent="1" vertex="1">
          <mxGeometry x="443.00000000000176" y="130" width="80.00000000000006" height="40.00000000000001" as="geometry" />
        </mxCell>
        <mxCell id="13" value="Старт" style="fillColor=#23445D;strokeColor=#FFFFFF;strokeWidth=2;fontColor=#FFFFFF;fontStyle=1" parent="1" vertex="1">
          <mxGeometry x="523.0000000000018" y="130" width="80.00000000000006" height="40.00000000000001" as="geometry" />
        </mxCell>
        <mxCell id="14" value="Кінець" style="fillColor=#23445D;strokeColor=#FFFFFF;strokeWidth=2;fontColor=#FFFFFF;fontStyle=1" parent="1" vertex="1">
          <mxGeometry x="603.0000000000019" y="130.0000000000001" width="80.00000000000006" height="40.00000000000001" as="geometry" />
        </mxCell>
        <mxCell id="15" value="24 Oct 05" style="fillColor=#23445D;strokeColor=#FFFFFF;strokeWidth=2;fontColor=#FFFFFF;fontStyle=1" parent="1" vertex="1">
          <mxGeometry x="223.00000000000182" y="391.0000000000001" width="140" height="20" as="geometry" />
        </mxCell>
        <mxCell id="16" value="M" style="fillColor=#23445D;strokeColor=#FFFFFF;strokeWidth=2;fontColor=#FFFFFF;fontStyle=1" parent="1" vertex="1">
          <mxGeometry x="223.00000000000182" y="411.0000000000001" width="20" height="20" as="geometry" />
        </mxCell>
        <mxCell id="17" value="T" style="fillColor=#23445D;strokeColor=#FFFFFF;strokeWidth=2;fontColor=#FFFFFF;fontStyle=1" parent="1" vertex="1">
          <mxGeometry x="243.00000000000182" y="411.0000000000001" width="20" height="20" as="geometry" />
        </mxCell>
        <mxCell id="18" value="W" style="fillColor=#23445D;strokeColor=#FFFFFF;strokeWidth=2;fontColor=#FFFFFF;fontStyle=1" parent="1" vertex="1">
          <mxGeometry x="263.0000000000018" y="411.0000000000001" width="20" height="20" as="geometry" />
        </mxCell>
        <mxCell id="19" value="T" style="fillColor=#23445D;strokeColor=#FFFFFF;strokeWidth=2;fontColor=#FFFFFF;fontStyle=1" parent="1" vertex="1">
          <mxGeometry x="283.0000000000018" y="411.0000000000001" width="20" height="20" as="geometry" />
        </mxCell>
        <mxCell id="20" value="F" style="fillColor=#23445D;strokeColor=#FFFFFF;strokeWidth=2;fontColor=#FFFFFF;fontStyle=1" parent="1" vertex="1">
          <mxGeometry x="303.0000000000016" y="411.0000000000001" width="20" height="20" as="geometry" />
        </mxCell>
        <mxCell id="21" value="S" style="fillColor=#23445D;strokeColor=#FFFFFF;strokeWidth=2;fontColor=#FFFFFF;fontStyle=1" parent="1" vertex="1">
          <mxGeometry x="323.0000000000016" y="411.0000000000001" width="20" height="20" as="geometry" />
        </mxCell>
        <mxCell id="22" value="S" style="fillColor=#23445D;strokeColor=#FFFFFF;strokeWidth=2;fontColor=#FFFFFF;fontStyle=1" parent="1" vertex="1">
          <mxGeometry x="343.0000000000016" y="411.0000000000001" width="20" height="20" as="geometry" />
        </mxCell>
        <mxCell id="23" value="31 Oct- 6 Nov 2005" style="fillColor=#23445D;strokeColor=#FFFFFF;strokeWidth=2;fontColor=#FFFFFF;fontStyle=1" parent="1" vertex="1">
          <mxGeometry x="363.0000000000018" y="391" width="140" height="20" as="geometry" />
        </mxCell>
        <mxCell id="24" value="M" style="fillColor=#23445D;strokeColor=#FFFFFF;strokeWidth=2;fontColor=#FFFFFF;fontStyle=1" parent="1" vertex="1">
          <mxGeometry x="363.0000000000018" y="411" width="20" height="20" as="geometry" />
        </mxCell>
        <mxCell id="25" value="T" style="fillColor=#23445D;strokeColor=#FFFFFF;strokeWidth=2;fontColor=#FFFFFF;fontStyle=1" parent="1" vertex="1">
          <mxGeometry x="383.0000000000018" y="411" width="20" height="20" as="geometry" />
        </mxCell>
        <mxCell id="26" value="W" style="fillColor=#23445D;strokeColor=#FFFFFF;strokeWidth=2;fontColor=#FFFFFF;fontStyle=1" parent="1" vertex="1">
          <mxGeometry x="403.0000000000018" y="411" width="20" height="20" as="geometry" />
        </mxCell>
        <mxCell id="27" value="T" style="fillColor=#23445D;strokeColor=#FFFFFF;strokeWidth=2;fontColor=#FFFFFF;fontStyle=1" parent="1" vertex="1">
          <mxGeometry x="423.0000000000018" y="411" width="20" height="20" as="geometry" />
        </mxCell>
        <mxCell id="28" value="F" style="fillColor=#23445D;strokeColor=#FFFFFF;strokeWidth=2;fontColor=#FFFFFF;fontStyle=1" parent="1" vertex="1">
          <mxGeometry x="443.0000000000016" y="411" width="20" height="20" as="geometry" />
        </mxCell>
        <mxCell id="29" value="S" style="fillColor=#23445D;strokeColor=#FFFFFF;strokeWidth=2;fontColor=#FFFFFF;fontStyle=1" parent="1" vertex="1">
          <mxGeometry x="463.0000000000016" y="411" width="20" height="20" as="geometry" />
        </mxCell>
        <mxCell id="30" value="S" style="fillColor=#23445D;strokeColor=#FFFFFF;strokeWidth=2;fontColor=#FFFFFF;fontStyle=1" parent="1" vertex="1">
          <mxGeometry x="483.0000000000016" y="411" width="20" height="20" as="geometry" />
        </mxCell>
        <mxCell id="31" value="7 May 12" style="fillColor=#23445D;strokeColor=#FFFFFF;strokeWidth=2;fontColor=#FFFFFF;fontStyle=1" parent="1" vertex="1">
          <mxGeometry x="503.0000000000018" y="391" width="140" height="20" as="geometry" />
        </mxCell>
        <mxCell id="32" value="M" style="fillColor=#23445D;strokeColor=#FFFFFF;strokeWidth=2;fontColor=#FFFFFF;fontStyle=1" parent="1" vertex="1">
          <mxGeometry x="503.0000000000018" y="411" width="20" height="20" as="geometry" />
        </mxCell>
        <mxCell id="33" value="T" style="fillColor=#23445D;strokeColor=#FFFFFF;strokeWidth=2;fontColor=#FFFFFF;fontStyle=1" parent="1" vertex="1">
          <mxGeometry x="523.0000000000018" y="411" width="20" height="20" as="geometry" />
        </mxCell>
        <mxCell id="34" value="W" style="fillColor=#23445D;strokeColor=#FFFFFF;strokeWidth=2;fontColor=#FFFFFF;fontStyle=1" parent="1" vertex="1">
          <mxGeometry x="543.0000000000018" y="411" width="20" height="20" as="geometry" />
        </mxCell>
        <mxCell id="35" value="T" style="fillColor=#23445D;strokeColor=#FFFFFF;strokeWidth=2;fontColor=#FFFFFF;fontStyle=1" parent="1" vertex="1">
          <mxGeometry x="563.0000000000018" y="411" width="20" height="20" as="geometry" />
        </mxCell>
        <mxCell id="36" value="F" style="fillColor=#23445D;strokeColor=#FFFFFF;strokeWidth=2;fontColor=#FFFFFF;fontStyle=1" parent="1" vertex="1">
          <mxGeometry x="583.0000000000016" y="411" width="20" height="20" as="geometry" />
        </mxCell>
        <mxCell id="37" value="S" style="fillColor=#23445D;strokeColor=#FFFFFF;strokeWidth=2;fontColor=#FFFFFF;fontStyle=1" parent="1" vertex="1">
          <mxGeometry x="603.0000000000016" y="411" width="20" height="20" as="geometry" />
        </mxCell>
        <mxCell id="38" value="S" style="fillColor=#23445D;strokeColor=#FFFFFF;strokeWidth=2;fontColor=#FFFFFF;fontStyle=1" parent="1" vertex="1">
          <mxGeometry x="623.0000000000016" y="411" width="20" height="20" as="geometry" />
        </mxCell>
        <mxCell id="39" value="14 May 12" style="fillColor=#23445D;strokeColor=#FFFFFF;strokeWidth=2;fontColor=#FFFFFF;fontStyle=1" parent="1" vertex="1">
          <mxGeometry x="643.0000000000018" y="391" width="140" height="20" as="geometry" />
        </mxCell>
        <mxCell id="40" value="M" style="fillColor=#23445D;strokeColor=#FFFFFF;strokeWidth=2;fontColor=#FFFFFF;fontStyle=1" parent="1" vertex="1">
          <mxGeometry x="643.0000000000018" y="411" width="20" height="20" as="geometry" />
        </mxCell>
        <mxCell id="41" value="T" style="fillColor=#23445D;strokeColor=#FFFFFF;strokeWidth=2;fontColor=#FFFFFF;fontStyle=1" parent="1" vertex="1">
          <mxGeometry x="663.0000000000018" y="411" width="20" height="20" as="geometry" />
        </mxCell>
        <mxCell id="42" value="W" style="fillColor=#23445D;strokeColor=#FFFFFF;strokeWidth=2;fontColor=#FFFFFF;fontStyle=1" parent="1" vertex="1">
          <mxGeometry x="683.0000000000018" y="411" width="20" height="20" as="geometry" />
        </mxCell>
        <mxCell id="43" value="T" style="fillColor=#23445D;strokeColor=#FFFFFF;strokeWidth=2;fontColor=#FFFFFF;fontStyle=1" parent="1" vertex="1">
          <mxGeometry x="703.0000000000018" y="411" width="20" height="20" as="geometry" />
        </mxCell>
        <mxCell id="44" value="F" style="fillColor=#23445D;strokeColor=#FFFFFF;strokeWidth=2;fontColor=#FFFFFF;fontStyle=1" parent="1" vertex="1">
          <mxGeometry x="723.0000000000016" y="411" width="20" height="20" as="geometry" />
        </mxCell>
        <mxCell id="45" value="S" style="fillColor=#23445D;strokeColor=#FFFFFF;strokeWidth=2;fontColor=#FFFFFF;fontStyle=1" parent="1" vertex="1">
          <mxGeometry x="743.0000000000016" y="411" width="20" height="20" as="geometry" />
        </mxCell>
        <mxCell id="46" value="S" style="fillColor=#23445D;strokeColor=#FFFFFF;strokeWidth=2;fontColor=#FFFFFF;fontStyle=1" parent="1" vertex="1">
          <mxGeometry x="763.0000000000016" y="411" width="20" height="20" as="geometry" />
        </mxCell>
        <mxCell id="47" value="21 May 12" style="fillColor=#23445D;strokeColor=#FFFFFF;strokeWidth=2;fontColor=#FFFFFF;fontStyle=1" parent="1" vertex="1">
          <mxGeometry x="783.0000000000018" y="391" width="140" height="20" as="geometry" />
        </mxCell>
        <mxCell id="48" value="M" style="fillColor=#23445D;strokeColor=#FFFFFF;strokeWidth=2;fontColor=#FFFFFF;fontStyle=1" parent="1" vertex="1">
          <mxGeometry x="783.0000000000018" y="411" width="20" height="20" as="geometry" />
        </mxCell>
        <mxCell id="49" value="T" style="fillColor=#23445D;strokeColor=#FFFFFF;strokeWidth=2;fontColor=#FFFFFF;fontStyle=1" parent="1" vertex="1">
          <mxGeometry x="803.0000000000018" y="411" width="20" height="20" as="geometry" />
        </mxCell>
        <mxCell id="50" value="W" style="fillColor=#23445D;strokeColor=#FFFFFF;strokeWidth=2;fontColor=#FFFFFF;fontStyle=1" parent="1" vertex="1">
          <mxGeometry x="823.0000000000018" y="411" width="20" height="20" as="geometry" />
        </mxCell>
        <mxCell id="51" value="T" style="fillColor=#23445D;strokeColor=#FFFFFF;strokeWidth=2;fontColor=#FFFFFF;fontStyle=1" parent="1" vertex="1">
          <mxGeometry x="843.0000000000018" y="411" width="20" height="20" as="geometry" />
        </mxCell>
        <mxCell id="52" value="F" style="fillColor=#23445D;strokeColor=#FFFFFF;strokeWidth=2;fontColor=#FFFFFF;fontStyle=1" parent="1" vertex="1">
          <mxGeometry x="863.0000000000016" y="411" width="20" height="20" as="geometry" />
        </mxCell>
        <mxCell id="53" value="S" style="fillColor=#23445D;strokeColor=#FFFFFF;strokeWidth=2;fontColor=#FFFFFF;fontStyle=1" parent="1" vertex="1">
          <mxGeometry x="883.0000000000016" y="411" width="20" height="20" as="geometry" />
        </mxCell>
        <mxCell id="54" value="S" style="fillColor=#23445D;strokeColor=#FFFFFF;strokeWidth=2;fontColor=#FFFFFF;fontStyle=1" parent="1" vertex="1">
          <mxGeometry x="903.0000000000016" y="411" width="20" height="20" as="geometry" />
        </mxCell>
        <mxCell id="55" value="28 Nov - 4 Dec 2005" style="fillColor=#23445D;strokeColor=#FFFFFF;strokeWidth=2;fontColor=#FFFFFF;fontStyle=1" parent="1" vertex="1">
          <mxGeometry x="923.0000000000018" y="391.0000000000001" width="140" height="20" as="geometry" />
        </mxCell>
        <mxCell id="56" value="M" style="fillColor=#23445D;strokeColor=#FFFFFF;strokeWidth=2;fontColor=#FFFFFF;fontStyle=1" parent="1" vertex="1">
          <mxGeometry x="923.0000000000018" y="411.0000000000001" width="20" height="20" as="geometry" />
        </mxCell>
        <mxCell id="57" value="T" style="fillColor=#23445D;strokeColor=#FFFFFF;strokeWidth=2;fontColor=#FFFFFF;fontStyle=1" parent="1" vertex="1">
          <mxGeometry x="943.0000000000018" y="411.0000000000001" width="20" height="20" as="geometry" />
        </mxCell>
        <mxCell id="58" value="W" style="fillColor=#23445D;strokeColor=#FFFFFF;strokeWidth=2;fontColor=#FFFFFF;fontStyle=1" parent="1" vertex="1">
          <mxGeometry x="963.0000000000018" y="411.0000000000001" width="20" height="20" as="geometry" />
        </mxCell>
        <mxCell id="59" value="T" style="fillColor=#23445D;strokeColor=#FFFFFF;strokeWidth=2;fontColor=#FFFFFF;fontStyle=1" parent="1" vertex="1">
          <mxGeometry x="983.0000000000018" y="411.0000000000001" width="20" height="20" as="geometry" />
        </mxCell>
        <mxCell id="60" value="F" style="fillColor=#23445D;strokeColor=#FFFFFF;strokeWidth=2;fontColor=#FFFFFF;fontStyle=1" parent="1" vertex="1">
          <mxGeometry x="1003.0000000000016" y="411.0000000000001" width="20" height="20" as="geometry" />
        </mxCell>
        <mxCell id="61" value="S" style="fillColor=#23445D;strokeColor=#FFFFFF;strokeWidth=2;fontColor=#FFFFFF;fontStyle=1" parent="1" vertex="1">
          <mxGeometry x="1023.0000000000016" y="411.0000000000001" width="20" height="20" as="geometry" />
        </mxCell>
        <mxCell id="62" value="S" style="fillColor=#23445D;strokeColor=#FFFFFF;strokeWidth=2;fontColor=#FFFFFF;fontStyle=1" parent="1" vertex="1">
          <mxGeometry x="1043.0000000000016" y="411.0000000000001" width="20" height="20" as="geometry" />
        </mxCell>
        <mxCell id="243" value="" style="shape=mxgraph.arrows.bent_right_arrow;fillColor=#AE4132;strokeColor=none;strokeWidth=2;direction=south" parent="1" vertex="1">
          <mxGeometry x="303.00000000000205" y="460.99999999999966" width="10.000000000000341" height="9.99999999999983" as="geometry" />
        </mxCell>
        <mxCell id="244" value="" style="shape=mxgraph.flowchart.process;fillColor=#AE4132;strokeColor=none;strokeWidth=2;opacity=50" parent="1" vertex="1">
          <mxGeometry x="163" y="451" width="140" height="20" as="geometry" />
        </mxCell>
        <mxCell id="245" value="" style="shape=mxgraph.flowchart.process;fillColor=#AE4132;strokeColor=none;strokeWidth=2;opacity=50" parent="1" vertex="1">
          <mxGeometry x="303" y="471" width="180" height="20" as="geometry" />
        </mxCell>
        <mxCell id="246" value="" style="shape=mxgraph.flowchart.process;fillColor=#AE4132;strokeColor=none;strokeWidth=2;opacity=50" parent="1" vertex="1">
          <mxGeometry x="483" y="491" width="361.5" height="20" as="geometry" />
        </mxCell>
        <mxCell id="ZZIg_srncWXC2HW05zio-279" value="5 Dec 2005" style="fillColor=#23445D;strokeColor=#FFFFFF;strokeWidth=2;fontColor=#FFFFFF;fontStyle=1" vertex="1" parent="1">
          <mxGeometry x="1063.0000000000018" y="391.0000000000001" width="140" height="20" as="geometry" />
        </mxCell>
        <mxCell id="ZZIg_srncWXC2HW05zio-280" value="T" style="fillColor=#23445D;strokeColor=#FFFFFF;strokeWidth=2;fontColor=#FFFFFF;fontStyle=1" vertex="1" parent="1">
          <mxGeometry x="1083.0000000000018" y="411.0000000000001" width="20" height="20" as="geometry" />
        </mxCell>
        <mxCell id="ZZIg_srncWXC2HW05zio-281" value="W" style="fillColor=#23445D;strokeColor=#FFFFFF;strokeWidth=2;fontColor=#FFFFFF;fontStyle=1" vertex="1" parent="1">
          <mxGeometry x="1103.0000000000018" y="411.0000000000001" width="20" height="20" as="geometry" />
        </mxCell>
        <mxCell id="ZZIg_srncWXC2HW05zio-282" value="T" style="fillColor=#23445D;strokeColor=#FFFFFF;strokeWidth=2;fontColor=#FFFFFF;fontStyle=1" vertex="1" parent="1">
          <mxGeometry x="1123.0000000000018" y="411.0000000000001" width="20" height="20" as="geometry" />
        </mxCell>
        <mxCell id="ZZIg_srncWXC2HW05zio-283" value="F" style="fillColor=#23445D;strokeColor=#FFFFFF;strokeWidth=2;fontColor=#FFFFFF;fontStyle=1" vertex="1" parent="1">
          <mxGeometry x="1143.0000000000016" y="411.0000000000001" width="20" height="20" as="geometry" />
        </mxCell>
        <mxCell id="ZZIg_srncWXC2HW05zio-284" value="S" style="fillColor=#23445D;strokeColor=#FFFFFF;strokeWidth=2;fontColor=#FFFFFF;fontStyle=1" vertex="1" parent="1">
          <mxGeometry x="1163.0000000000016" y="411.0000000000001" width="20" height="20" as="geometry" />
        </mxCell>
        <mxCell id="ZZIg_srncWXC2HW05zio-285" value="S" style="fillColor=#23445D;strokeColor=#FFFFFF;strokeWidth=2;fontColor=#FFFFFF;fontStyle=1" vertex="1" parent="1">
          <mxGeometry x="1183.0000000000016" y="411.0000000000001" width="20" height="20" as="geometry" />
        </mxCell>
        <mxCell id="ZZIg_srncWXC2HW05zio-286" value="T" style="fillColor=#23445D;strokeColor=#FFFFFF;strokeWidth=2;fontColor=#FFFFFF;fontStyle=1" vertex="1" parent="1">
          <mxGeometry x="1223.0000000000018" y="411.0000000000001" width="20" height="20" as="geometry" />
        </mxCell>
        <mxCell id="ZZIg_srncWXC2HW05zio-287" value="W" style="fillColor=#23445D;strokeColor=#FFFFFF;strokeWidth=2;fontColor=#FFFFFF;fontStyle=1" vertex="1" parent="1">
          <mxGeometry x="1243.0000000000018" y="411.0000000000001" width="20" height="20" as="geometry" />
        </mxCell>
        <mxCell id="ZZIg_srncWXC2HW05zio-288" value="T" style="fillColor=#23445D;strokeColor=#FFFFFF;strokeWidth=2;fontColor=#FFFFFF;fontStyle=1" vertex="1" parent="1">
          <mxGeometry x="1263.0000000000018" y="411.0000000000001" width="20" height="20" as="geometry" />
        </mxCell>
        <mxCell id="ZZIg_srncWXC2HW05zio-289" value="F" style="fillColor=#23445D;strokeColor=#FFFFFF;strokeWidth=2;fontColor=#FFFFFF;fontStyle=1" vertex="1" parent="1">
          <mxGeometry x="1283.0000000000016" y="411.0000000000001" width="20" height="20" as="geometry" />
        </mxCell>
        <mxCell id="ZZIg_srncWXC2HW05zio-290" value="S" style="fillColor=#23445D;strokeColor=#FFFFFF;strokeWidth=2;fontColor=#FFFFFF;fontStyle=1" vertex="1" parent="1">
          <mxGeometry x="1303.0000000000016" y="411.0000000000001" width="20" height="20" as="geometry" />
        </mxCell>
        <mxCell id="ZZIg_srncWXC2HW05zio-291" value="S" style="fillColor=#23445D;strokeColor=#FFFFFF;strokeWidth=2;fontColor=#FFFFFF;fontStyle=1" vertex="1" parent="1">
          <mxGeometry x="1323.0000000000016" y="411.0000000000001" width="20" height="20" as="geometry" />
        </mxCell>
        <mxCell id="ZZIg_srncWXC2HW05zio-292" value="12 Dec 2005" style="fillColor=#23445D;strokeColor=#FFFFFF;strokeWidth=2;fontColor=#FFFFFF;fontStyle=1" vertex="1" parent="1">
          <mxGeometry x="1203.0000000000018" y="391.0000000000001" width="140" height="20" as="geometry" />
        </mxCell>
        <mxCell id="ZZIg_srncWXC2HW05zio-293" value="T" style="fillColor=#23445D;strokeColor=#FFFFFF;strokeWidth=2;fontColor=#FFFFFF;fontStyle=1" vertex="1" parent="1">
          <mxGeometry x="1363.0000000000018" y="411.0000000000001" width="20" height="20" as="geometry" />
        </mxCell>
        <mxCell id="ZZIg_srncWXC2HW05zio-294" value="W" style="fillColor=#23445D;strokeColor=#FFFFFF;strokeWidth=2;fontColor=#FFFFFF;fontStyle=1" vertex="1" parent="1">
          <mxGeometry x="1383.0000000000018" y="411.0000000000001" width="20" height="20" as="geometry" />
        </mxCell>
        <mxCell id="ZZIg_srncWXC2HW05zio-295" value="T" style="fillColor=#23445D;strokeColor=#FFFFFF;strokeWidth=2;fontColor=#FFFFFF;fontStyle=1" vertex="1" parent="1">
          <mxGeometry x="1403.0000000000018" y="411.0000000000001" width="20" height="20" as="geometry" />
        </mxCell>
        <mxCell id="ZZIg_srncWXC2HW05zio-296" value="F" style="fillColor=#23445D;strokeColor=#FFFFFF;strokeWidth=2;fontColor=#FFFFFF;fontStyle=1" vertex="1" parent="1">
          <mxGeometry x="1423.0000000000016" y="411.0000000000001" width="20" height="20" as="geometry" />
        </mxCell>
        <mxCell id="ZZIg_srncWXC2HW05zio-297" value="S" style="fillColor=#23445D;strokeColor=#FFFFFF;strokeWidth=2;fontColor=#FFFFFF;fontStyle=1" vertex="1" parent="1">
          <mxGeometry x="1443.0000000000016" y="411.0000000000001" width="20" height="20" as="geometry" />
        </mxCell>
        <mxCell id="ZZIg_srncWXC2HW05zio-298" value="S" style="fillColor=#23445D;strokeColor=#FFFFFF;strokeWidth=2;fontColor=#FFFFFF;fontStyle=1" vertex="1" parent="1">
          <mxGeometry x="1463.0000000000018" y="411.0000000000001" width="20" height="20" as="geometry" />
        </mxCell>
        <mxCell id="ZZIg_srncWXC2HW05zio-299" value="19 Dec 2005" style="fillColor=#23445D;strokeColor=#FFFFFF;strokeWidth=2;fontColor=#FFFFFF;fontStyle=1" vertex="1" parent="1">
          <mxGeometry x="1343.0000000000018" y="391.0000000000001" width="140" height="20" as="geometry" />
        </mxCell>
        <mxCell id="ZZIg_srncWXC2HW05zio-300" value="T" style="fillColor=#23445D;strokeColor=#FFFFFF;strokeWidth=2;fontColor=#FFFFFF;fontStyle=1" vertex="1" parent="1">
          <mxGeometry x="1503.0000000000018" y="411.0000000000001" width="20" height="20" as="geometry" />
        </mxCell>
        <mxCell id="ZZIg_srncWXC2HW05zio-301" value="W" style="fillColor=#23445D;strokeColor=#FFFFFF;strokeWidth=2;fontColor=#FFFFFF;fontStyle=1" vertex="1" parent="1">
          <mxGeometry x="1523.0000000000018" y="411.0000000000001" width="20" height="20" as="geometry" />
        </mxCell>
        <mxCell id="ZZIg_srncWXC2HW05zio-302" value="T" style="fillColor=#23445D;strokeColor=#FFFFFF;strokeWidth=2;fontColor=#FFFFFF;fontStyle=1" vertex="1" parent="1">
          <mxGeometry x="1543.0000000000018" y="411.0000000000001" width="20" height="20" as="geometry" />
        </mxCell>
        <mxCell id="ZZIg_srncWXC2HW05zio-303" value="F" style="fillColor=#23445D;strokeColor=#FFFFFF;strokeWidth=2;fontColor=#FFFFFF;fontStyle=1" vertex="1" parent="1">
          <mxGeometry x="1563.0000000000018" y="411.0000000000001" width="20" height="20" as="geometry" />
        </mxCell>
        <mxCell id="ZZIg_srncWXC2HW05zio-304" value="S" style="fillColor=#23445D;strokeColor=#FFFFFF;strokeWidth=2;fontColor=#FFFFFF;fontStyle=1" vertex="1" parent="1">
          <mxGeometry x="1583.0000000000018" y="411.0000000000001" width="20" height="20" as="geometry" />
        </mxCell>
        <mxCell id="ZZIg_srncWXC2HW05zio-306" value="26 Dec 2005" style="fillColor=#23445D;strokeColor=#FFFFFF;strokeWidth=2;fontColor=#FFFFFF;fontStyle=1" vertex="1" parent="1">
          <mxGeometry x="1483" y="391" width="120.5" height="20" as="geometry" />
        </mxCell>
        <mxCell id="ZZIg_srncWXC2HW05zio-328" value="M" style="fillColor=#23445D;strokeColor=#FFFFFF;strokeWidth=2;fontColor=#FFFFFF;fontStyle=1" vertex="1" parent="1">
          <mxGeometry x="1063.0000000000018" y="411.0000000000001" width="20" height="20" as="geometry" />
        </mxCell>
        <mxCell id="ZZIg_srncWXC2HW05zio-329" value="M" style="fillColor=#23445D;strokeColor=#FFFFFF;strokeWidth=2;fontColor=#FFFFFF;fontStyle=1" vertex="1" parent="1">
          <mxGeometry x="1203.0000000000018" y="411.0000000000001" width="20" height="20" as="geometry" />
        </mxCell>
        <mxCell id="ZZIg_srncWXC2HW05zio-330" value="M" style="fillColor=#23445D;strokeColor=#FFFFFF;strokeWidth=2;fontColor=#FFFFFF;fontStyle=1" vertex="1" parent="1">
          <mxGeometry x="1343.0000000000018" y="411.0000000000001" width="20" height="20" as="geometry" />
        </mxCell>
        <mxCell id="ZZIg_srncWXC2HW05zio-331" value="M" style="fillColor=#23445D;strokeColor=#FFFFFF;strokeWidth=2;fontColor=#FFFFFF;fontStyle=1" vertex="1" parent="1">
          <mxGeometry x="1483.0000000000018" y="411.0000000000001" width="20" height="20" as="geometry" />
        </mxCell>
        <mxCell id="247" value="" style="shape=mxgraph.flowchart.process;fillColor=#AE4132;strokeColor=none;strokeWidth=2;opacity=50" parent="1" vertex="1">
          <mxGeometry x="1382.25" y="531" width="61.5" height="20" as="geometry" />
        </mxCell>
        <mxCell id="248" value="" style="shape=mxgraph.flowchart.process;fillColor=#AE4132;strokeColor=none;strokeWidth=2;opacity=50" parent="1" vertex="1">
          <mxGeometry x="1443" y="549" width="41.5" height="20" as="geometry" />
        </mxCell>
        <mxCell id="256" value="" style="shape=mxgraph.flowchart.process;fillColor=#AE4132;strokeColor=#000000;strokeWidth=2;opacity=50" parent="1" vertex="1">
          <mxGeometry x="1484.5" y="573" width="118" height="20" as="geometry" />
        </mxCell>
        <mxCell id="ZZIg_srncWXC2HW05zio-363" value="" style="shape=mxgraph.arrows.bent_right_arrow;fillColor=#AE4132;strokeColor=none;strokeWidth=2;direction=south" vertex="1" parent="1">
          <mxGeometry x="483.0000000000009" y="480.99999999999943" width="10.000000000000341" height="9.99999999999983" as="geometry" />
        </mxCell>
        <mxCell id="ZZIg_srncWXC2HW05zio-364" value="" style="shape=mxgraph.arrows.bent_right_arrow;fillColor=#AE4132;strokeColor=none;strokeWidth=2;direction=south" vertex="1" parent="1">
          <mxGeometry x="844.5000000000009" y="500.99999999999943" width="10.000000000000341" height="9.99999999999983" as="geometry" />
        </mxCell>
        <mxCell id="ZZIg_srncWXC2HW05zio-365" value="" style="shape=mxgraph.arrows.bent_right_arrow;fillColor=#AE4132;strokeColor=none;strokeWidth=2;direction=south" vertex="1" parent="1">
          <mxGeometry x="1383.250000000001" y="520.9999999999994" width="10.000000000000341" height="9.99999999999983" as="geometry" />
        </mxCell>
        <mxCell id="ZZIg_srncWXC2HW05zio-366" value="" style="shape=mxgraph.arrows.bent_right_arrow;fillColor=#AE4132;strokeColor=none;strokeWidth=2;direction=south" vertex="1" parent="1">
          <mxGeometry x="1443.000000000001" y="538.9999999999994" width="10.000000000000341" height="9.99999999999983" as="geometry" />
        </mxCell>
        <mxCell id="ZZIg_srncWXC2HW05zio-367" value="" style="shape=mxgraph.arrows.bent_right_arrow;fillColor=#AE4132;strokeColor=none;strokeWidth=2;direction=south" vertex="1" parent="1">
          <mxGeometry x="1483.000000000001" y="560.9999999999994" width="10.000000000000341" height="9.99999999999983" as="geometry" />
        </mxCell>
        <mxCell id="254" value="" style="shape=mxgraph.flowchart.process;fillColor=#AE4132;strokeColor=#000000;strokeWidth=2;opacity=100" parent="1" vertex="1">
          <mxGeometry x="163.5" y="431" width="1438" height="20" as="geometry" />
        </mxCell>
        <mxCell id="252" value="" style="shape=mxgraph.flowchart.process;fillColor=#AE4132;strokeColor=none;strokeWidth=2;opacity=50" parent="1" vertex="1">
          <mxGeometry x="842.75" y="511" width="540.5" height="20" as="geometry" />
        </mxCell>
        <mxCell id="ZZIg_srncWXC2HW05zio-650" value="реалізація" style="shape=mxgraph.flowchart.process;fillColor=#AE4132;strokeColor=#000000;strokeWidth=2;opacity=50" vertex="1" parent="1">
          <mxGeometry x="512.5" y="745" width="139.5" height="20" as="geometry" />
        </mxCell>
        <mxCell id="ZZIg_srncWXC2HW05zio-651" value="" style="shape=mxgraph.arrows.bent_right_arrow;fillColor=#AE4132;strokeColor=none;strokeWidth=2;direction=south" vertex="1" parent="1">
          <mxGeometry x="367.5000000000009" y="714.9999999999994" width="10.000000000000341" height="9.99999999999983" as="geometry" />
        </mxCell>
        <mxCell id="ZZIg_srncWXC2HW05zio-652" value="" style="shape=mxgraph.arrows.bent_right_arrow;fillColor=#AE4132;strokeColor=none;strokeWidth=2;direction=south" vertex="1" parent="1">
          <mxGeometry x="512.5000000000009" y="732.9999999999994" width="10.000000000000341" height="9.99999999999983" as="geometry" />
        </mxCell>
        <mxCell id="ZZIg_srncWXC2HW05zio-653" value="проектування" style="shape=mxgraph.flowchart.process;fillColor=#AE4132;strokeColor=#000000;strokeWidth=2;opacity=50" vertex="1" parent="1">
          <mxGeometry x="372.5" y="725" width="139.5" height="20" as="geometry" />
        </mxCell>
        <mxCell id="ZZIg_srncWXC2HW05zio-654" value="формування вимог" style="shape=mxgraph.flowchart.process;fillColor=#AE4132;strokeColor=#000000;strokeWidth=2;opacity=50" vertex="1" parent="1">
          <mxGeometry x="228" y="705" width="139.5" height="20" as="geometry" />
        </mxCell>
        <mxCell id="ZZIg_srncWXC2HW05zio-656" value="" style="shape=mxgraph.arrows.bent_right_arrow;fillColor=#AE4132;strokeColor=none;strokeWidth=2;direction=south" vertex="1" parent="1">
          <mxGeometry x="228.0000000000009" y="692.9999999999994" width="10.000000000000341" height="9.99999999999983" as="geometry" />
        </mxCell>
        <mxCell id="ZZIg_srncWXC2HW05zio-657" value="Кількість виконавців" style="shape=mxgraph.flowchart.process;fillColor=#AE4132;strokeColor=#000000;strokeWidth=2;opacity=50" vertex="1" parent="1">
          <mxGeometry x="88" y="685" width="139.5" height="20" as="geometry" />
        </mxCell>
        <mxCell id="ZZIg_srncWXC2HW05zio-659" value="" style="shape=mxgraph.arrows.bent_right_arrow;fillColor=#AE4132;strokeColor=none;strokeWidth=2;direction=south" vertex="1" parent="1">
          <mxGeometry x="936.5000000000009" y="795.9999999999995" width="10.000000000000341" height="9.99999999999983" as="geometry" />
        </mxCell>
        <mxCell id="ZZIg_srncWXC2HW05zio-661" value="експлуатація і супровід" style="shape=mxgraph.flowchart.process;fillColor=#AE4132;strokeColor=#000000;strokeWidth=2;opacity=50" vertex="1" parent="1">
          <mxGeometry x="941.5" y="806" width="139.5" height="20" as="geometry" />
        </mxCell>
        <mxCell id="ZZIg_srncWXC2HW05zio-662" value="впровадження" style="shape=mxgraph.flowchart.process;fillColor=#AE4132;strokeColor=#000000;strokeWidth=2;opacity=50" vertex="1" parent="1">
          <mxGeometry x="797" y="786" width="139.5" height="20" as="geometry" />
        </mxCell>
        <mxCell id="ZZIg_srncWXC2HW05zio-663" value="" style="shape=mxgraph.arrows.bent_right_arrow;fillColor=#AE4132;strokeColor=none;strokeWidth=2;direction=south" vertex="1" parent="1">
          <mxGeometry x="652.0000000000009" y="755.9999999999994" width="10.000000000000341" height="9.99999999999983" as="geometry" />
        </mxCell>
        <mxCell id="ZZIg_srncWXC2HW05zio-664" value="" style="shape=mxgraph.arrows.bent_right_arrow;fillColor=#AE4132;strokeColor=none;strokeWidth=2;direction=south" vertex="1" parent="1">
          <mxGeometry x="797.0000000000009" y="773.9999999999994" width="10.000000000000341" height="9.99999999999983" as="geometry" />
        </mxCell>
        <mxCell id="ZZIg_srncWXC2HW05zio-665" value="тестування" style="shape=mxgraph.flowchart.process;fillColor=#AE4132;strokeColor=#000000;strokeWidth=2;opacity=50" vertex="1" parent="1">
          <mxGeometry x="657" y="766" width="139.5" height="20" as="geometry" />
        </mxCell>
        <mxCell id="ZZIg_srncWXC2HW05zio-666" value="&lt;div style=&quot;text-align: center;&quot;&gt;&lt;span style=&quot;font-size: 14px; font-family: &amp;quot;Times New Roman&amp;quot;; background-color: initial;&quot;&gt;Лабораторна робота №8&lt;/span&gt;&lt;/div&gt;&lt;div style=&quot;font-size: 14px;&quot;&gt;&lt;p class=&quot;MsoNormal&quot; style=&quot;text-align: justify;&quot;&gt;&lt;b&gt;&lt;span style=&quot;&quot;&gt;&lt;span style=&quot;&quot;&gt;&amp;nbsp; &amp;nbsp; Планування проекту з допомогою даіграм Ганта&lt;/span&gt;&lt;/span&gt;&lt;/b&gt;&lt;/p&gt;&lt;/div&gt;&lt;div style=&quot;&quot;&gt;&lt;b style=&quot;font-size: 14px;&quot;&gt;&lt;font face=&quot;Times New Roman&quot;&gt;Варіант: 15&lt;/font&gt;&lt;/b&gt;&lt;/div&gt;&lt;div style=&quot;font-size: 14px;&quot;&gt;&lt;font style=&quot;&quot; face=&quot;Times New Roman&quot;&gt;&lt;span style=&quot;background-color: initial;&quot; lang=&quot;UK&quot;&gt;Виконав студент 612п Петренко Іван Юрійович&lt;/span&gt;&lt;/font&gt;&lt;/div&gt;&lt;div style=&quot;font-size: 14px;&quot;&gt;&lt;font style=&quot;&quot; face=&quot;Times New Roman&quot;&gt;&lt;span style=&quot;background-color: initial;&quot; lang=&quot;UK&quot;&gt;Перевірила: доцент, Дем&#39;яненко О.С.&lt;/span&gt;&lt;/font&gt;&lt;/div&gt;&lt;div style=&quot;font-size: 14px;&quot;&gt;&lt;font style=&quot;&quot; face=&quot;Times New Roman&quot;&gt;&lt;span style=&quot;background-color: initial;&quot; lang=&quot;UK&quot;&gt;URL адреса:&lt;/span&gt;&lt;/font&gt;&lt;/div&gt;&lt;font face=&quot;Times New Roman&quot; color=&quot;#0000ee&quot;&gt;&lt;u&gt;&lt;a href=&quot;https://github.com/iypetrenko/lab_8&quot;&gt;https://github.com/iypetrenko/lab_8&lt;/a&gt;&lt;/u&gt;&lt;/font&gt;" style="rounded=0;whiteSpace=wrap;html=1;align=left;" vertex="1" parent="1">
          <mxGeometry x="1235" y="30" width="387" height="170" as="geometry" />
        </mxCell>
      </root>
    </mxGraphModel>
  </diagram>
</mxfile>
